PathFileType	4	(X/Y/Z)	Patient4_TMGait_0pt7_02_left_01.trc.trc
DataRate	CameraRate	NumFrames	NumMarkers	Units	OrigDataRate	OrigDataStartFrame	OrigNumFrames
86.956521739130	86.956521739130	5	33	mm	86.956521739130	36	       141
Frame#	Time	Sacral			L.Shoulder			Chest			R.Shoulder			Neck			R.ASIS			L.ASIS			R.Thigh.Superior			R.Thigh.Lateral			R.Thigh.Inferior			R.Patella			L.Thigh.Superior			L.Thigh.Lateral			L.Thigh.Inferior			L.Patella			L.Shank.Superior			L.Shank.Lateral			L.Shank.Inferior			R.Shank.Superior			R.Shank.Lateral			R.Shank.Inferior			R.Heel			R.Midfoot.Superior			R.Midfoot.Lateral			R.Toe			L.Heel			L.Midfoot.Lateral			L.Midfoot.Superior			L.Toe			L.Elbow			L.Wrist			R.Elbow			R.Wrist			
		X1	Y1	Z1	X2	Y2	Z2	X3	Y3	Z3	X4	Y4	Z4	X5	Y5	Z5	X6	Y6	Z6	X7	Y7	Z7	X8	Y8	Z8	X9	Y9	Z9	X10	Y10	Z10	X11	Y11	Z11	X12	Y12	Z12	X13	Y13	Z13	X14	Y14	Z14	X15	Y15	Z15	X16	Y16	Z16	X17	Y17	Z17	X18	Y18	Z18	X19	Y19	Z19	X20	Y20	Z20	X21	Y21	Z21	X22	Y22	Z22	X23	Y23	Z23	X24	Y24	Z24	X25	Y25	Z25	X26	Y26	Z26	X27	Y27	Z27	X28	Y28	Z28	X29	Y29	Z29	X30	Y30	Z30	X31	Y31	Z31	X32	Y32	Z32	X33	Y33	Z33	

36	1.062500000000	869.386024243603	1007.220444140045	460.303293318898	1061.064860437078	1408.294266517732	248.810091820583	1174.502852967091	1339.184109282483	403.381607005468	1115.218579963360	1433.700404838494	576.581299482643	1079.870896089372	1477.315473802607	398.979782651354	1091.534516871464	927.425828870254	571.442454208770	1076.154496418289	941.655227737212	297.443901688637	1101.511723168509	715.022060158702	553.761347471736	1004.021400527748	618.919596856359	619.445686898584	1074.324527218822	549.521545830391	546.681788185828	1053.051853278039	446.835287470708	564.322392992621	1153.259865441547	765.873556094030	335.282085627817	1095.190204908573	636.253043370323	267.405964370223	1192.953863566582	574.371476121938	332.447402050360	1207.787047429589	502.099700450753	339.115960141179	1184.745081556113	425.780750050352	328.662544577459	1105.294606890686	308.031389909901	268.898001395717	1159.930734793054	197.308433418771	338.404863161186	979.398478817982	381.416070293530	571.014662601626	863.468427736373	332.516324666775	634.212213868221	854.839725226753	224.145768250607	581.081769440071	656.976691702014	130.509618634530	557.059898025789	834.362763434278	113.060978636882	595.468986270728	729.177574094336	89.429541612931	631.026043579593	921.812437201620	33.634023211001	622.160969522294	1036.592200700458	38.968362953137	368.589228990948	1115.309315634701	36.067599847919	292.368724857418	1195.662155262717	97.650685448439	324.523191296353	1326.369272603633	46.457955342702	304.414243459706	939.519096057673	1070.097535250047	171.375159422924	929.794716661462	809.261607593732	185.880388562979	1237.960594654857	1119.737944632894	693.779703827337	1411.092229738038	1234.931401951080	557.155853674209	
37	1.074000000000	869.274800014549	1008.329168492174	457.323611915962	1061.918043779601	1409.904877351607	246.628888279786	1174.466909226037	1340.858235212050	401.836319024061	1113.970006242219	1435.224874244820	574.785037019401	1079.816733925449	1478.827250398320	396.928160153850	1091.119807794658	929.113765774418	569.217559724634	1076.843991605218	943.168066403407	295.188091710279	1106.214634261716	717.687937673143	552.419265493902	1011.155905843321	619.495511401377	617.927168623590	1084.138326753142	551.207070848478	545.947636299340	1064.031682907227	446.833213804436	564.696687267971	1152.793417450838	765.202042634386	332.521123512920	1092.681062592169	636.077669068304	266.143837839312	1189.824572837618	573.355551906660	331.290962366103	1203.860250027728	501.241450965130	338.514086292064	1180.099158097877	425.177838090446	328.085124108520	1099.745529234851	308.015211021217	268.555366975597	1153.088799869783	196.962828242114	338.315671403203	987.986221984480	382.618876139911	570.764788697208	869.723380498094	338.264564831377	633.067966999783	858.109972720163	229.718556683850	580.984074944709	657.534772139715	145.393745428630	555.910375813775	833.283870498463	117.282901730135	595.523185382769	726.637737441352	99.993381746635	630.186483681365	914.701538332728	32.488346725684	622.141271157860	1028.686328295625	38.949266133748	368.507290550376	1107.412079969828	36.150775075171	292.325001152527	1187.757463717519	97.687566825916	324.553895451214	1318.488997692939	46.360724830754	304.366381742403	945.370266853509	1069.810497645810	167.810683486052	944.573001867050	808.625107329599	178.697823011182	1226.531384189032	1116.525035781648	693.998218701924	1408.300475425164	1219.288469356982	558.425928505491	
38	1.085500000000	869.025753322014	1009.405967014072	454.356836616895	1062.877507253735	1411.514868002219	244.552368373430	1174.361367410434	1342.543581431851	400.514441844527	1112.380276670817	1436.698824569686	573.144526913063	1079.627355258202	1480.301429121149	394.962256948230	1090.515635722989	930.746003392605	567.213281582074	1077.489262336650	944.605503167738	293.234101198052	1110.982523435458	720.608254440702	551.253257604222	1018.474505715679	620.333490353513	616.521970734053	1094.048728401658	553.304080807004	545.193356198571	1075.240416641592	447.389010140711	564.774385836218	1151.907351273065	764.235162095756	329.955801655723	1089.808707438621	635.890946167064	264.890680647702	1186.176730342271	572.263529580844	330.295036800635	1199.362997389369	500.319506386751	337.940800614488	1174.942703669561	424.555767583259	327.490859648119	1093.805206921269	307.900369973376	268.211181292404	1146.033019409145	196.613093710933	338.233383480717	997.054512522408	384.179051541738	570.316173580921	876.737708808061	344.255946566409	631.790519013233	862.168958378824	235.694499524218	580.691560974734	659.484649878239	160.849855909169	554.438845441240	832.940798599216	122.087232976692	595.439607381203	725.124230683066	111.293210926678	629.108913228650	908.017982741573	31.409184140504	622.211313650680	1020.737190920678	38.921658487249	368.474792256516	1099.456205681445	36.175878459251	292.308113586912	1179.837723216098	97.636835500423	324.571341201482	1310.574174161636	46.091968526467	304.302227004830	950.893938914352	1069.812681744444	164.236586686985	959.930852744024	808.629637958610	171.556683961842	1214.550850671294	1113.661300909682	694.141985919567	1405.071717681467	1202.197395668709	560.258306832117	
39	1.097000000000	868.624959023455	1010.433225765007	451.424298448763	1063.934110917137	1413.082751526712	242.600507852294	1174.183539146178	1344.192229561024	399.431845732545	1110.485306222862	1438.089409577622	571.677213818045	1079.314107723659	1481.717817925024	393.105413521965	1089.723219711600	932.304843417312	565.423516187656	1078.059797463768	945.955926239869	291.549190739977	1115.728223927483	723.780544529980	550.171535526543	1025.945494038686	621.460482031208	615.212399038156	1103.945667579869	555.838785405064	544.348595277446	1086.603998974119	448.517540287497	564.522904738266	1150.669674039326	763.107243803805	327.624922102108	1086.699074773286	635.747323577130	263.648420006576	1182.139355835293	571.163792537683	329.440997704182	1194.438574633286	499.381343386371	337.386043907389	1169.414099990344	423.937662453565	326.887669331236	1087.584231008290	307.731766712612	267.846519419492	1138.827856433673	196.274099502418	338.152333593358	1006.525520646803	386.099227440914	569.660332200369	884.441619148648	350.407766921212	630.385432447940	867.009461510135	241.974057692993	580.198570453644	662.835507744273	176.510107016069	552.663255745150	833.413976990517	127.397441995178	595.213509595288	724.739228344021	123.056357405188	627.797684134385	901.997641497041	30.572181990887	622.364853526220	1012.742316159888	38.901945734728	368.470206972384	1091.445671312974	36.162908128181	292.305879546937	1171.905193753617	97.519241512643	324.576355189759	1302.626081165096	45.684460401865	304.227580945765	956.172151296854	1070.020015116641	160.622457651505	975.861237175891	809.279906743986	164.511025822732	1202.174401063215	1111.141094931938	694.172511896695	1401.237812269036	1183.736247099552	562.726167202444	
40	1.108500000000	868.067085121786	1011.406686457210	448.541465125917	1065.059935764604	1414.585449498494	240.794783621442	1173.928278155505	1345.770248677950	398.591899040268	1108.337411022673	1439.375278909176	570.395687867204	1078.895203691289	1483.067969237358	391.384892960353	1088.744703925751	933.791463103370	563.828437860866	1078.528650949993	947.218757308768	290.081546203488	1120.357199797092	727.204876804939	549.072043923795	1033.531509712631	622.907323782065	613.981668337141	1113.730648897581	558.836159506776	543.359379677984	1098.063943057160	450.230006821639	563.954084606668	1149.165834426611	761.941640808243	325.549818357036	1083.451330484733	635.674035868958	262.434476807931	1177.833691849472	570.099769882472	328.711919251836	1189.221256254243	498.461623291696	336.861074067445	1163.640824024898	423.341689775925	326.294507441498	1081.181092548264	307.549161126129	267.461609251772	1131.531070899492	195.958053918124	338.074040771665	1016.333877429544	388.386598421921	568.822143889601	892.759131006910	356.641102584832	628.874771550769	872.632773986162	248.444938330339	579.521077215857	667.554923558323	191.960668130264	550.627686946713	834.808902903495	133.095690024148	594.840456960273	725.582131312539	134.957236779084	626.276621041092	896.946449894783	30.178333501262	622.576666333284	1004.706093605131	38.900663738981	368.475363455013	1083.390216330818	36.131257773380	292.309369668097	1163.961439195728	97.361529916319	324.572032709944	1294.648518282989	45.187913398303	304.147771449182	961.314761707484	1070.364505302057	156.937476217098	992.361689178650	810.589121485734	157.613236827150	1189.553709530819	1108.947504564662	694.066993928957	1396.630542371983	1164.021766897464	565.894563004858	
